<svg version="1.1" id="Layer_1" xmlns="http://www.w3.org/2000/svg" xmlns:xlink="http://www.w3.org/1999/xlink" x="0px" y="0px"
	 width="100%" viewBox="0 0 464 480" enable-background="new 0 0 464 480" xml:space="preserve">
<path fill="#000000" opacity="1.000000" stroke="none" 
	d="
M224.500412,435.607391 
	C210.766739,428.646393 197.998459,420.789001 185.863632,411.960510 
	C181.071671,408.474121 176.006424,405.972504 170.393402,404.179169 
	C160.692596,401.079773 151.405151,396.966278 142.774689,391.488464 
	C141.371017,390.597534 139.989136,389.651459 138.700043,388.604279 
	C132.599030,383.647888 132.787857,381.578491 140.297821,378.281342 
	C89.863503,351.476990 57.272167,310.876434 43.872124,255.671570 
	C34.897163,218.696930 37.973869,182.220230 52.112339,146.987091 
	C71.176407,99.479340 104.925133,66.213936 151.711334,46.099380 
	C81.505013,88.464005 47.819542,149.556931 60.173611,231.842163 
	C67.926628,283.481750 96.780334,322.735474 141.658569,350.984711 
	C141.787231,348.257233 139.536850,346.151550 141.609512,344.373016 
	C143.453232,342.790863 145.694656,343.507690 147.837662,343.494965 
	C155.535034,343.449249 162.597794,345.776520 169.365723,349.144836 
	C171.144470,350.030060 172.581528,350.415009 174.448624,349.305847 
	C199.293747,334.546661 222.388184,317.827576 238.059357,292.764221 
	C246.371216,279.470856 250.999939,265.051941 250.601074,249.276581 
	C250.421097,242.158432 248.758057,235.200958 246.903091,228.310150 
	C249.655243,227.142975 251.490784,228.683716 253.344818,229.531265 
	C289.822144,246.206421 312.766296,274.170471 322.297485,313.028870 
	C323.538757,318.089539 325.189301,320.324860 330.773773,319.811127 
	C337.680573,319.175720 344.780579,320.533020 351.387085,317.265320 
	C353.100525,316.417786 354.706451,316.982239 355.711456,318.620331 
	C356.876343,320.518921 356.041565,322.136780 354.685028,323.552765 
	C352.331299,326.009674 348.929474,326.791199 345.827484,328.945923 
	C357.918488,335.067413 357.194092,344.899902 353.543030,355.647217 
	C355.003540,355.715973 356.146423,355.715179 357.276459,355.835388 
	C359.103943,356.029785 360.430756,357.001190 360.891815,358.794586 
	C361.329224,360.496002 360.392578,361.973236 358.991394,362.499847 
	C349.404968,366.102478 345.458893,376.147339 337.278839,381.318207 
	C335.817322,382.242035 335.468719,383.413330 336.046173,385.149017 
	C344.252350,409.814606 357.843536,429.315155 384.706665,436.165527 
	C386.314667,436.575592 387.960449,436.837952 389.589569,437.164551 
	C391.206146,437.488678 392.823883,437.807098 394.432983,438.126404 
	C394.909668,440.594727 392.872040,440.998718 391.610596,441.751373 
	C375.047363,451.632904 357.024200,457.129700 337.944489,459.332336 
	C297.642090,463.984955 260.398712,453.887421 224.500412,435.607391 
z"/>
<path fill="#000000" opacity="1.000000" stroke="none" 
	d="
M105.597511,129.561493 
	C79.598106,173.515335 74.611565,219.377106 91.261871,267.937012 
	C79.189491,257.246643 71.765961,200.039078 77.904137,169.055435 
	C84.656693,134.970581 99.721466,105.269035 124.398354,80.636673 
	C193.030777,12.128052 305.181366,15.609838 369.309326,88.811623 
	C431.168610,159.423721 417.717926,256.517181 370.439606,307.952789 
	C370.127991,305.869049 371.471222,304.761108 372.354675,303.482147 
	C392.435455,274.411072 402.683960,241.994019 400.362976,206.929703 
	C396.082458,142.261551 364.148102,95.332581 305.255096,67.598198 
	C280.302429,55.847279 253.529770,51.681808 226.300018,54.669949 
	C174.552353,60.348625 134.082077,85.199699 105.597511,129.561493 
z"/>
</svg>